<?xml version="1.0" encoding="utf-8"?>
<!-- Generator: Adobe Illustrator 18.0.0, SVG Export Plug-In . SVG Version: 6.00 Build 0)  -->
<!DOCTYPE svg PUBLIC "-//W3C//DTD SVG 1.1//EN" "http://www.w3.org/Graphics/SVG/1.1/DTD/svg11.dtd">
<svg version="1.1" id="Layer_6" xmlns="http://www.w3.org/2000/svg" xmlns:xlink="http://www.w3.org/1999/xlink" x="0px" y="0px"
	 viewBox="0 0 512 523" enable-background="new 0 0 512 523" xml:space="preserve">
<path fill="#003087" d="M256.1,500.1c-63.9,0-123.9-24.9-169.1-70C41.9,384.9,17,324.9,17,261S41.9,137.1,87,92s105.2-70,169.1-70
	S380,46.8,425.2,92c45.2,45.2,70,105.2,70,169.1s-24.9,123.9-70,169.1S320,500.1,256.1,500.1z M256.1,39.9
	c-59.1,0-114.6,23-156.3,64.8C58,146.5,35,202,35,261c0,59.1,23,114.6,64.8,156.3c41.8,41.8,97.3,64.8,156.3,64.8
	c59.1,0,114.6-23,156.3-64.8s64.8-97.3,64.8-156.3c0-59.1-23-114.6-64.8-156.3C370.7,62.9,315.2,39.9,256.1,39.9z"/>
<g>
	<defs>
		<polygon id="SVGID_4_" points="448.8,270.3 490.9,112.6 85.4,4.1 -19.8,404.5 383,516 425.8,356 51.3,255.9 74.1,169.8 		"/>
	</defs>
	<clipPath id="SVGID_1_">
		<use xlink:href="#SVGID_4_"  overflow="visible"/>
	</clipPath>
	<g clip-path="url(#SVGID_1_)">
		<g>
			<g>
				<g>
					<path fill="#003087" d="M256.1,423C166.8,423,94.2,350.3,94.2,261c0-89.3,72.6-161.9,161.9-161.9C345.4,99.1,418,171.8,418,261
						C418,350.3,345.4,423,256.1,423z M256.1,117.1c-79.4,0-143.9,64.6-143.9,143.9S176.7,405,256.1,405S400,340.4,400,261
						S335.5,117.1,256.1,117.1z"/>
				</g>
			</g>
		</g>
	</g>
</g>
<g>
	<path fill="#003087" d="M251.1,92.1l-2.3,0.1l-0.2-4.8c-3.2-0.2-5.6-0.8-7.2-1.8c-2.8-1.8-4.3-4.9-4.4-9.3l6.5-0.2
		c0.3,2,0.7,3.4,1.1,4.1c0.7,1.1,1.9,1.7,3.8,2L248,71.7l-2-0.5c-3.1-0.8-5.3-2-6.7-3.5c-1.3-1.6-2-3.5-2.1-5.8
		c-0.1-1.5,0.1-2.9,0.6-4.1c0.4-1.2,1.1-2.3,2-3.2c1.1-1.2,2.4-2,3.7-2.5c0.8-0.3,2.1-0.6,3.7-0.7l-0.1-3.2l2.3-0.1l0.1,3.3
		c2.6,0.1,4.7,0.7,6.2,1.7c2.8,1.6,4.3,4.4,4.5,8.3l-6.4,0.2c-0.2-1.4-0.5-2.5-0.8-3.1c-0.6-1.1-1.8-1.7-3.4-1.8l0.3,9.2
		c3.9,1.2,6.5,2.3,7.8,3.2c2.2,1.6,3.4,4,3.5,7.1c0.1,4.1-1.2,7.1-4.2,9c-1.8,1.2-3.9,1.9-6.4,2.2L251.1,92.1z M247.5,56.7
		c-1.4,0.1-2.4,0.5-3.1,1.2c-0.7,0.7-1,1.7-0.9,3c0,1.4,0.6,2.4,1.6,3.2c0.6,0.4,1.5,0.8,2.7,1.1L247.5,56.7z M250.8,81.9
		c1.3-0.2,2.2-0.5,2.7-1c1-0.8,1.4-2.1,1.4-3.9c0-1.4-0.6-2.5-1.5-3.2c-0.6-0.4-1.5-0.9-2.9-1.3L250.8,81.9z"/>
	<path fill="#003087" d="M285.6,94.7l-2.3-0.4l0.8-4.8c-3.1-0.9-5.3-2-6.7-3.3c-2.4-2.3-3.2-5.6-2.4-10l6.4,1.1
		c-0.1,2,0,3.4,0.2,4.2c0.4,1.2,1.5,2.1,3.3,2.7l1.7-10.2l-1.8-0.9c-2.9-1.4-4.8-3-5.8-4.8c-1-1.8-1.3-3.8-0.9-6.1
		c0.3-1.5,0.7-2.8,1.4-3.9c0.7-1.1,1.6-2.1,2.6-2.8c1.3-0.9,2.7-1.5,4.2-1.7c0.9-0.1,2.2-0.1,3.8,0l0.5-3.2l2.3,0.4l-0.6,3.2
		c2.5,0.7,4.5,1.6,5.8,3c2.4,2.2,3.3,5.2,2.7,9l-6.3-1.1c0.1-1.4,0.1-2.5-0.2-3.2c-0.4-1.2-1.4-2-2.9-2.4l-1.6,9.1
		c3.5,2,5.9,3.5,7,4.8c1.9,2,2.5,4.6,2,7.6c-0.7,4-2.7,6.7-5.9,8c-2,0.8-4.2,1.1-6.7,0.9L285.6,94.7z M289.2,59.2
		c-1.4-0.2-2.5,0-3.3,0.6s-1.3,1.5-1.5,2.7c-0.2,1.3,0.1,2.5,1,3.4c0.5,0.5,1.3,1.1,2.4,1.6L289.2,59.2z M287.3,84.6
		c1.3,0.1,2.2-0.1,2.9-0.4c1.1-0.6,1.8-1.7,2.1-3.5c0.2-1.4,0-2.5-0.8-3.5c-0.5-0.6-1.3-1.2-2.6-1.9L287.3,84.6z"/>
	<path fill="#003087" d="M318.8,104.2l-2.2-0.9l1.8-4.5c-2.8-1.5-4.8-3-5.9-4.5c-1.9-2.7-2-6.2-0.3-10.3l6.1,2.4
		c-0.5,2-0.7,3.4-0.6,4.2c0.2,1.2,1.1,2.3,2.7,3.3l3.8-9.6l-1.6-1.3c-2.5-2-4.1-3.9-4.7-5.9c-0.6-2-0.5-4,0.3-6.1
		c0.5-1.4,1.3-2.6,2.2-3.5c0.9-1,1.9-1.7,3.1-2.2c1.5-0.7,3-0.9,4.4-0.8c0.9,0.1,2.1,0.3,3.7,0.8l1.2-3l2.2,0.9l-1.2,3
		c2.4,1.1,4,2.5,5,4.1c1.9,2.6,2.2,5.7,0.9,9.4l-5.9-2.3c0.4-1.4,0.6-2.5,0.5-3.2c-0.1-1.3-0.9-2.3-2.4-3l-3.4,8.6
		c3.1,2.6,5.1,4.7,5.9,6.1c1.4,2.4,1.5,5,0.4,7.9c-1.5,3.8-3.9,6-7.4,6.6c-2.1,0.4-4.4,0.2-6.8-0.5L318.8,104.2z M322.5,94.6
		c1.2,0.3,2.2,0.4,2.9,0.2c1.2-0.3,2.1-1.3,2.8-3c0.5-1.3,0.5-2.5-0.1-3.6c-0.4-0.6-1.1-1.4-2.1-2.4L322.5,94.6z M329.5,70.1
		c-1.3-0.5-2.4-0.5-3.3-0.1c-0.9,0.4-1.6,1.2-2,2.4c-0.5,1.3-0.4,2.4,0.2,3.6c0.4,0.6,1,1.3,2,2.1L329.5,70.1z"/>
	<path fill="#003087" d="M349.4,120.1l-2-1.3l2.6-4c-2.5-2-4.1-3.9-4.8-5.6c-1.3-3.1-0.7-6.5,1.8-10.2l5.5,3.6
		c-0.9,1.8-1.4,3.1-1.4,3.9c-0.1,1.3,0.6,2.5,2,3.8l5.6-8.7l-1.3-1.6c-2.1-2.4-3.2-4.7-3.4-6.7c-0.2-2,0.4-4,1.6-5.9
		c0.8-1.3,1.8-2.3,2.9-3c1.1-0.8,2.2-1.3,3.5-1.5c1.6-0.3,3.1-0.3,4.5,0.1c0.9,0.2,2,0.8,3.5,1.5l1.8-2.7l2,1.3l-1.8,2.7
		c2.1,1.6,3.5,3.3,4.1,5c1.3,2.9,1,6-1.1,9.3l-5.3-3.5c0.7-1.3,1-2.3,1.1-3c0.1-1.3-0.5-2.4-1.7-3.4l-5,7.7c2.5,3.2,4,5.6,4.5,7.2
		c0.9,2.6,0.5,5.2-1.2,7.8c-2.2,3.4-5.1,5.1-8.6,5c-2.1,0-4.3-0.7-6.5-1.9L349.4,120.1z M355,111.5c1.1,0.6,2.1,0.8,2.8,0.8
		c1.2-0.1,2.4-0.9,3.4-2.4c0.8-1.2,1-2.3,0.6-3.5c-0.2-0.7-0.7-1.6-1.6-2.8L355,111.5z M366.9,89c-1.2-0.7-2.3-1-3.2-0.8
		c-1,0.2-1.8,0.9-2.5,1.9c-0.7,1.1-0.9,2.3-0.5,3.5c0.2,0.7,0.7,1.5,1.5,2.4L366.9,89z"/>
	<path fill="#003087" d="M376.1,142.1l-1.7-1.7l3.4-3.4c-2-2.5-3.2-4.7-3.6-6.5c-0.6-3.3,0.6-6.5,3.8-9.6l4.6,4.6
		c-1.3,1.6-2,2.8-2.2,3.6c-0.3,1.2,0.1,2.6,1.1,4.1l7.3-7.3l-1-1.8c-1.5-2.8-2.2-5.2-2-7.3c0.2-2,1.2-3.9,2.8-5.5
		c1.1-1.1,2.2-1.9,3.4-2.4c1.2-0.5,2.5-0.8,3.7-0.8c1.6,0,3.1,0.3,4.4,1c0.8,0.4,1.8,1.2,3.1,2.2l2.3-2.3l1.7,1.7L405,113
		c1.7,2,2.7,3.9,3,5.7c0.7,3.1-0.3,6.1-2.9,8.9l-4.5-4.5c0.9-1.1,1.5-2,1.7-2.7c0.4-1.2,0-2.5-1-3.7l-6.5,6.5c1.8,3.6,2.8,6.3,3,7.9
		c0.3,2.7-0.6,5.2-2.8,7.4c-2.9,2.9-6,3.9-9.4,3.1c-2.1-0.5-4.1-1.5-6-3.2L376.1,142.1z M383.3,134.8c1,0.8,1.9,1.2,2.6,1.3
		c1.2,0.2,2.5-0.4,3.8-1.7c1-1,1.4-2.1,1.3-3.3c-0.1-0.7-0.4-1.7-1-3L383.3,134.8z M399.5,115.2c-1-1-2-1.4-3-1.4
		c-1,0-1.9,0.5-2.8,1.4c-1,1-1.4,2.1-1.2,3.4c0.1,0.7,0.4,1.6,1,2.7L399.5,115.2z"/>
	<path fill="#003087" d="M252.8,430l2.3,0l-0.1,4.8c3.2,0.4,5.5,1.1,7.1,2.2c2.7,1.9,4.1,5.1,3.9,9.6l-6.5-0.1
		c-0.2-2-0.5-3.4-0.9-4.1c-0.6-1.1-1.8-1.8-3.7-2.2l-0.1,10.3l2,0.6c3.1,0.9,5.2,2.2,6.5,3.9c1.2,1.6,1.9,3.6,1.8,5.9
		c0,1.5-0.3,2.9-0.8,4.1c-0.5,1.2-1.2,2.3-2.1,3.1c-1.2,1.1-2.4,1.9-3.9,2.3c-0.9,0.3-2.1,0.4-3.8,0.6l0,3.2l-2.3,0l0-3.3
		c-2.6-0.2-4.7-0.9-6.1-2c-2.7-1.8-4.1-4.6-4.1-8.5l6.4,0.1c0.1,1.4,0.3,2.5,0.7,3.2c0.6,1.2,1.7,1.8,3.3,1.9l0.1-9.2
		c-3.8-1.4-6.4-2.6-7.7-3.6c-2.1-1.7-3.2-4.1-3.2-7.2c0.1-4.1,1.6-7,4.6-8.8c1.8-1.1,4-1.7,6.5-1.9L252.8,430z M252.7,440.2
		c-1.3,0.1-2.2,0.4-2.8,0.8c-1,0.7-1.5,2-1.6,3.8c0,1.4,0.4,2.5,1.4,3.3c0.6,0.5,1.5,1,2.8,1.5L252.7,440.2z M254.7,465.6
		c1.4,0,2.5-0.4,3.1-1.1c0.7-0.7,1-1.7,1.1-2.9c0-1.4-0.5-2.4-1.5-3.2c-0.6-0.4-1.4-0.9-2.6-1.2L254.7,465.6z"/>
	<path fill="#003087" d="M218.5,425.7l2.3,0.5l-1,4.7c3,1,5.2,2.2,6.5,3.6c2.3,2.4,2.9,5.8,1.9,10.2l-6.4-1.4c0.2-2,0.2-3.4,0-4.2
		c-0.4-1.2-1.4-2.1-3.2-2.9l-2.2,10.1l1.8,1c2.8,1.6,4.7,3.3,5.6,5.1c0.9,1.9,1.1,3.9,0.6,6.1c-0.3,1.5-0.9,2.7-1.6,3.8
		c-0.7,1.1-1.6,2-2.7,2.7c-1.4,0.9-2.8,1.4-4.3,1.5c-0.9,0.1-2.2,0-3.8-0.2l-0.7,3.1l-2.3-0.5l0.7-3.2c-2.5-0.8-4.4-1.8-5.6-3.2
		c-2.3-2.3-3-5.3-2.3-9.1l6.2,1.4c-0.2,1.4-0.2,2.5,0,3.2c0.3,1.3,1.3,2.1,2.8,2.6l2-9c-3.4-2.1-5.7-3.8-6.8-5.1
		c-1.8-2.1-2.3-4.7-1.6-7.7c0.9-4,3-6.5,6.3-7.7c2-0.7,4.3-0.9,6.8-0.5L218.5,425.7z M216.3,435.8c-1.3-0.1-2.2,0-2.9,0.3
		c-1.1,0.5-1.9,1.7-2.3,3.4c-0.3,1.4-0.1,2.5,0.7,3.5c0.4,0.6,1.3,1.3,2.5,2L216.3,435.8z M213.1,461c1.4,0.3,2.5,0.1,3.3-0.4
		c0.8-0.6,1.4-1.4,1.6-2.7c0.3-1.3,0-2.5-0.8-3.5c-0.5-0.5-1.2-1.1-2.3-1.8L213.1,461z"/>
	<path fill="#003087" d="M185.8,414.7l2.1,1l-2,4.4c2.8,1.6,4.6,3.2,5.7,4.8c1.8,2.8,1.7,6.3-0.2,10.3l-6-2.7c0.6-2,0.9-3.3,0.8-4.1
		c-0.1-1.2-1-2.4-2.5-3.4l-4.2,9.4l1.6,1.3c2.4,2.1,3.9,4.1,4.4,6.1c0.5,2,0.3,4-0.6,6.1c-0.6,1.4-1.4,2.5-2.3,3.4
		c-1,0.9-2,1.6-3.2,2.1c-1.5,0.6-3,0.8-4.5,0.6c-0.9-0.1-2.1-0.4-3.7-1l-1.3,2.9l-2.1-1l1.3-3c-2.3-1.3-3.9-2.7-4.8-4.3
		c-1.8-2.7-1.9-5.8-0.4-9.4l5.8,2.6c-0.5,1.4-0.7,2.4-0.6,3.2c0.1,1.3,0.8,2.3,2.2,3.1l3.8-8.4c-3-2.8-4.8-4.9-5.6-6.4
		c-1.3-2.4-1.3-5.1,0-7.9c1.7-3.7,4.2-5.8,7.7-6.3c2.1-0.3,4.4,0,6.7,0.8L185.8,414.7z M173.4,448.1c1.3,0.5,2.4,0.6,3.3,0.2
		s1.6-1.1,2.1-2.3c0.6-1.2,0.5-2.4-0.1-3.6c-0.3-0.6-1-1.4-1.9-2.2L173.4,448.1z M181.6,424c-1.2-0.4-2.2-0.5-2.9-0.3
		c-1.2,0.3-2.2,1.2-3,2.9c-0.6,1.3-0.6,2.5-0.1,3.6c0.3,0.7,1,1.5,2,2.5L181.6,424z"/>
	<path fill="#003087" d="M156,397.2l1.9,1.4l-2.8,3.9c2.4,2.2,3.9,4.1,4.5,5.9c1.1,3.1,0.4,6.5-2.3,10.1l-5.3-3.8
		c1-1.8,1.6-3.1,1.6-3.9c0.1-1.2-0.5-2.5-1.8-3.9l-6.1,8.4l1.2,1.6c2,2.5,3,4.8,3.1,6.9c0.1,2.1-0.5,4-1.9,5.8
		c-0.9,1.2-1.9,2.2-3,2.9c-1.1,0.7-2.3,1.2-3.5,1.4c-1.6,0.3-3.1,0.1-4.5-0.3c-0.9-0.3-2-0.9-3.4-1.7l-1.9,2.6l-1.9-1.4l1.9-2.6
		c-2-1.7-3.3-3.4-3.9-5.2c-1.2-3-0.7-6.1,1.5-9.3l5.2,3.7c-0.7,1.2-1.2,2.2-1.3,3c-0.2,1.3,0.3,2.4,1.6,3.5l5.4-7.5
		c-2.3-3.3-3.7-5.8-4.2-7.4c-0.8-2.6-0.2-5.2,1.6-7.7c2.4-3.3,5.3-4.8,8.8-4.6c2.1,0.2,4.3,0.9,6.4,2.2L156,397.2z M137.1,427.4
		c1.2,0.8,2.2,1.1,3.2,0.9c1-0.2,1.8-0.8,2.6-1.8c0.8-1.1,1-2.3,0.7-3.5c-0.2-0.7-0.7-1.5-1.4-2.5L137.1,427.4z M150,405.5
		c-1.1-0.6-2-0.9-2.7-0.9c-1.2,0-2.4,0.8-3.5,2.2c-0.8,1.1-1.1,2.3-0.8,3.5c0.2,0.7,0.7,1.7,1.5,2.8L150,405.5z"/>
	<path fill="#003087" d="M130.5,374l1.6,1.7l-3.6,3.2c1.9,2.6,3,4.8,3.3,6.7c0.5,3.3-0.9,6.4-4.3,9.4l-4.4-4.8
		c1.4-1.5,2.2-2.7,2.4-3.5c0.4-1.2,0.1-2.6-0.9-4.2l-7.7,7l0.9,1.8c1.4,2.9,1.9,5.3,1.6,7.4c-0.3,2-1.4,3.8-3,5.3
		c-1.1,1-2.3,1.7-3.5,2.2c-1.2,0.5-2.5,0.7-3.7,0.6c-1.6-0.1-3.1-0.5-4.3-1.2c-0.8-0.4-1.8-1.2-3-2.4l-2.4,2.2l-1.6-1.7l2.4-2.2
		c-1.6-2.1-2.5-4-2.7-5.9c-0.5-3.2,0.6-6.1,3.4-8.8l4.3,4.7c-1,1.1-1.6,1.9-1.8,2.7c-0.4,1.2-0.2,2.5,0.8,3.7l6.8-6.2
		c-1.6-3.7-2.5-6.4-2.6-8.1c-0.2-2.7,0.8-5.2,3.1-7.2c3-2.7,6.2-3.6,9.6-2.7c2.1,0.6,4,1.7,5.8,3.5L130.5,374z M105.7,399.7
		c1,1,1.9,1.5,2.9,1.6c1,0,1.9-0.4,2.9-1.2c1-0.9,1.5-2,1.4-3.3c-0.1-0.7-0.3-1.6-0.9-2.8L105.7,399.7z M122.9,380.9
		c-1-0.8-1.8-1.3-2.5-1.5c-1.2-0.2-2.5,0.2-3.9,1.5c-1,0.9-1.5,2-1.5,3.3c0,0.7,0.3,1.8,0.8,3.1L122.9,380.9z"/>
</g>
<g>
	<path fill="#003087" d="M116.4,193.1c4.2,2.8,7.2,6.6,9,11.4c1.4,3.9,2,7.9,1.9,11.9c-0.2,4-0.7,7.8-1.7,11.3
		c-2.4,8.8-6.1,15.7-11.3,20.9c-7,6.9-15.5,9.1-25.5,6.4l-28.5-7.6l17.7-66l28.5,7.6C110.6,190.1,113.9,191.5,116.4,193.1z
		 M88.4,196.4l-11.5,43.1l12.7,3.4c6.5,1.7,11.9-0.2,16.2-6c2.3-3.1,4.2-7.2,5.5-12c1.8-6.7,2.1-12.2,1-16.3
		c-1.1-4.2-4.9-7.1-11.1-8.8L88.4,196.4z"/>
	<path fill="#003087" d="M179.1,272.9c-6.4,3.8-14.3,4.4-23.7,1.9c-9.4-2.5-16-7-19.6-13.5c-5-8.1-5.9-18.1-2.7-29.9
		c3.2-12.1,9-20.3,17.3-24.6c6.4-3.8,14.3-4.4,23.7-1.9c9.4,2.5,16,7,19.6,13.5c5,7.8,5.9,17.8,2.7,29.9
		C193.2,260.2,187.4,268.4,179.1,272.9z M173.2,260.5c4.3-3.2,7.4-8.5,9.4-15.9c2-7.4,1.9-13.6-0.2-18.5c-2.1-4.9-5.9-8.1-11.4-9.6
		c-5.5-1.5-10.4-0.6-14.7,2.5c-4.3,3.2-7.5,8.5-9.5,15.9c-2,7.4-1.9,13.6,0.3,18.5c2.2,4.9,6,8.1,11.5,9.6
		C164,264.6,168.9,263.7,173.2,260.5z"/>
	<path fill="#003087" d="M215.5,218.2L230,222l13.9,53.1l12.3-46.1l12.9,3.4l-17.7,66l-13.8-3.7l-14.3-54.1l-12.6,46.9l-12.9-3.4
		L215.5,218.2z"/>
	<path fill="#003087" d="M300.9,241l15.6,4.2l5.7,72.3l-15-4l-0.7-14.7l-24.3-6.5l-8.1,12.4l-14.4-3.9L300.9,241z M289,281.9
		l16.9,4.5l-1.4-28.2L289,281.9z"/>
	<path fill="#003087" d="M389.5,264.8l-3.1,11.7l-19.8-5.3L352,325.5l-13.9-3.7l14.6-54.4l-19.8-5.3l3.1-11.7L389.5,264.8z"/>
	<path fill="#003087" d="M443.3,291.7l-34.9-9.4l-3.8,14l32.1,8.6l-3.1,11.5l-32.1-8.6l-4.5,17l36.6,9.8l-3.2,11.9l-50-13.4l17.7-66
		l48.4,13L443.3,291.7z"/>
</g>
</svg>
